<svg width="6" height="12" viewBox="0 0 6 12" fill="none" xmlns="http://www.w3.org/2000/svg">
<path d="M5.85366 10.6463C5.90011 10.6927 5.93696 10.7479 5.9621 10.8086C5.98724 10.8693 6.00018 10.9343 6.00018 11C6.00018 11.0657 5.98724 11.1308 5.9621 11.1915C5.93696 11.2522 5.90011 11.3073 5.85366 11.3538C5.8072 11.4002 5.75205 11.4371 5.69135 11.4622C5.63066 11.4874 5.5656 11.5003 5.49991 11.5003C5.43421 11.5003 5.36915 11.4874 5.30846 11.4622C5.24776 11.4371 5.19261 11.4002 5.14615 11.3538L0.146155 6.35378C0.0996667 6.30735 0.0627875 6.2522 0.0376253 6.1915C0.0124632 6.13081 -0.000488281 6.06574 -0.000488281 6.00003C-0.000488281 5.93433 0.0124632 5.86926 0.0376253 5.80856C0.0627875 5.74786 0.0996667 5.69272 0.146155 5.64628L5.14615 0.646284C5.23997 0.552464 5.36722 0.499756 5.49991 0.499756C5.63259 0.499756 5.75984 0.552464 5.85366 0.646284C5.94748 0.740104 6.00018 0.867352 6.00018 1.00003C6.00018 1.13272 5.94748 1.25996 5.85366 1.35378L1.20678 6.00003L5.85366 10.6463Z" fill="#F7F7F7"/>
</svg>
